/* XPM */
static char *_55549738ff04932dfa98dceea2e1cc3RpWMZ5u3N5aSSKXk[] = {
/* columns rows colors chars-per-pixel */
"32 32 2 1 ",
"  c None",
". c #550000",
/* pixels */
"           ...    ...           ",
"         .....    .....         ",
"        ......    ......        ",
"      ........    ........      ",
"      ........    ........      ",
"      .......      .......      ",
"      .......  ..  .......      ",
"      .......  ..  ......       ",
"       ......  ..  ......       ",
"       ......  ..  ......       ",
"       ......  ..  ......       ",
"       .....   ..   .....       ",
"       .....  ....  .....       ",
"        ....  ....  ....        ",
"        ....  ....  ....        ",
"        ....  ....  ....        ",
"        ....  ....  ....        ",
"        ...   ....  ....        ",
"        ...  ......  ...        ",
"        ...  ......  ..         ",
"         ..  ......  ..         ",
"         ..  ......  ..         ",
"         ..  ......  ..         ",
"         ..  ......  ..         ",
"         .   ......   .         ",
"            ........            ",
"            ........            ",
"            ........            ",
"            ........            ",
"            ........            ",
"            ........            ",
"            ........            "
};
