/* XPM */
static char *dca69f9381ae4b50cb149642918eef009qdmyQeVYHmygNXc[] = {
/* columns rows colors chars-per-pixel */
"128 128 3 1 ",
"  c None",
". c #540000",
"X c #550000",
/* pixels */
"                                                     XXXX              XXXX                                                     ",
"                                                 XXXXXXXX              XXXXXXXX                                                 ",
"                                              XXXXXXXXXXX              XXXXXXXXXXXX                                             ",
"                                           XXXXXXXXXXXXXX              XXXXXXXXXXXXXX                                           ",
"                                         XXXXXXXXXXXXXXXX              XXXXXXXXXXXXXXXX                                         ",
"                                       XXXXXXXXXXXXXXXXXX              XXXXXXXXXXXXXXXXXXX                                      ",
"                                     XXXXXXXXXXXXXXXXXXX               XXXXXXXXXXXXXXXXXXXX                                     ",
"                                   XXXXXXXXXXXXXXXXXXXXX                XXXXXXXXXXXXXXXXXXXXX                                   ",
"                                 XXXXXXXXXXXXXXXXXXXXXXX                XXXXXXXXXXXXXXXXXXXXXXX                                 ",
"                                XXXXXXXXXXXXXXXXXXXXXXXX                XXXXXXXXXXXXXXXXXXXXXXXX                                ",
"                              XXXXXXXXXXXXXXXXXXXXXXXXXX                XXXXXXXXXXXXXXXXXXXXXXXXXX                              ",
"                             XXXXXXXXXXXXXXXXXXXXXXXXXXX                XXXXXXXXXXXXXXXXXXXXXXXXXXX                             ",
"                            XXXXXXXXXXXXXXXXXXXXXXXXXXX                 XXXXXXXXXXXXXXXXXXXXXXXXXXXX                            ",
"                          XXXXXXXXXXXXXXXXXXXXXXXXXXXXX                  XXXXXXXXXXXXXXXXXXXXXXXXXXXXX                          ",
"                         XXXXXXXXXXXXXXXXXXXXXXXXXXXXXX                  XXXXXXXXXXXXXXXXXXXXXXXXXXXXXX                         ",
"                         XXXXXXXXXXXXXXXXXXXXXXXXXXXXXX        XX        XXXXXXXXXXXXXXXXXXXXXXXXXXXXXX                         ",
"                         XXXXXXXXXXXXXXXXXXXXXXXXXXXXXX        XX        XXXXXXXXXXXXXXXXXXXXXXXXXXXXXX                         ",
"                         XXXXXXXXXXXXXXXXXXXXXXXXXXXXXX        XX        XXXXXXXXXXXXXXXXXXXXXXXXXXXXXX                         ",
"                         XXXXXXXXXXXXXXXXXXXXXXXXXXXXX         XX        XXXXXXXXXXXXXXXXXXXXXXXXXXXXXX                         ",
"                         XXXXXXXXXXXXXXXXXXXXXXXXXXXXX         XX        XXXXXXXXXXXXXXXXXXXXXXXXXXXXX                          ",
"                          XXXXXXXXXXXXXXXXXXXXXXXXXXXX        XXXX        XXXXXXXXXXXXXXXXXXXXXXXXXXXX                          ",
"                          XXXXXXXXXXXXXXXXXXXXXXXXXXXX        XXXX        XXXXXXXXXXXXXXXXXXXXXXXXXXXX                          ",
"                          XXXXXXXXXXXXXXXXXXXXXXXXXXXX        XXXX        XXXXXXXXXXXXXXXXXXXXXXXXXXXX                          ",
"                          XXXXXXXXXXXXXXXXXXXXXXXXXXXX        XXXX        XXXXXXXXXXXXXXXXXXXXXXXXXXXX                          ",
"                          XXXXXXXXXXXXXXXXXXXXXXXXXXXX        XXXX        XXXXXXXXXXXXXXXXXXXXXXXXXXXX                          ",
"                          XXXXXXXXXXXXXXXXXXXXXXXXXXX         XXXX        XXXXXXXXXXXXXXXXXXXXXXXXXXX                           ",
"                           XXXXXXXXXXXXXXXXXXXXXXXXXX        XXXXX         XXXXXXXXXXXXXXXXXXXXXXXXXX                           ",
"                           XXXXXXXXXXXXXXXXXXXXXXXXXX        XXXXXX        XXXXXXXXXXXXXXXXXXXXXXXXXX                           ",
"                           XXXXXXXXXXXXXXXXXXXXXXXXXX        XXXXXX        XXXXXXXXXXXXXXXXXXXXXXXXXX                           ",
"                           XXXXXXXXXXXXXXXXXXXXXXXXXX        XXXXXX        XXXXXXXXXXXXXXXXXXXXXXXXXX                           ",
"                           XXXXXXXXXXXXXXXXXXXXXXXXXX        XXXXXX        XXXXXXXXXXXXXXXXXXXXXXXXXX                           ",
"                           XXXXXXXXXXXXXXXXXXXXXXXXX         XXXXXX        XXXXXXXXXXXXXXXXXXXXXXXXX                            ",
"                            XXXXXXXXXXXXXXXXXXXXXXXX         XXXXXX         XXXXXXXXXXXXXXXXXXXXXXXX                            ",
"                            XXXXXXXXXXXXXXXXXXXXXXXX        XXXXXXXX        XXXXXXXXXXXXXXXXXXXXXXXX                            ",
"                            XXXXXXXXXXXXXXXXXXXXXXXX        XXXXXXXX        XXXXXXXXXXXXXXXXXXXXXXXX                            ",
"                            XXXXXXXXXXXXXXXXXXXXXXXX        XXXXXXXX        XXXXXXXXXXXXXXXXXXXXXXXX                            ",
"                            XXXXXXXXXXXXXXXXXXXXXXXX        XXXXXXXX        XXXXXXXXXXXXXXXXXXXXXXXX                            ",
"                            XXXXXXXXXXXXXXXXXXXXXXXX        XXXXXXXX        XXXXXXXXXXXXXXXXXXXXXXXX                            ",
"                            XXXXXXXXXXXXXXXXXXXXXXX         XXXXXXXX        XXXXXXXXXXXXXXXXXXXXXXX                             ",
"                             XXXXXXXXXXXXXXXXXXXXXX        XXXXXXXXX         XXXXXXXXXXXXXXXXXXXXXX                             ",
"                             XXXXXXXXXXXXXXXXXXXXXX        XXXXXXXXXX        XXXXXXXXXXXXXXXXXXXXXX                             ",
"                             XXXXXXXXXXXXXXXXXXXXXX        XXXXXXXXXX        XXXXXXXXXXXXXXXXXXXXXX                             ",
"                             XXXXXXXXXXXXXXXXXXXXXX        XXXXXXXXXX        XXXXXXXXXXXXXXXXXXXXXX                             ",
"                             XXXXXXXXXXXXXXXXXXXXXX        XXXXXXXXXX        XXXXXXXXXXXXXXXXXXXXXX                             ",
"                             XXXXXXXXXXXXXXXXXXXXX         XXXXXXXXXX        XXXXXXXXXXXXXXXXXXXXX                              ",
"                              XXXXXXXXXXXXXXXXXXXX         XXXXXXXXXX         XXXXXXXXXXXXXXXXXXXX                              ",
"                              XXXXXXXXXXXXXXXXXXXX        XXXXXXXXXXXX        XXXXXXXXXXXXXXXXXXXX                              ",
"                              XXXXXXXXXXXXXXXXXXXX        XXXXXXXXXXXX        XXXXXXXXXXXXXXXXXXXX                              ",
"                              XXXXXXXXXXXXXXXXXXXX        XXXXXXXXXXXX        XXXXXXXXXXXXXXXXXXXX                              ",
"                              XXXXXXXXXXXXXXXXXXXX        XXXXXXXXXXXX        XXXXXXXXXXXXXXXXXXXX                              ",
"                              XXXXXXXXXXXXXXXXXXX         XXXXXXXXXXXX        XXXXXXXXXXXXXXXXXXX                               ",
"                               XXXXXXXXXXXXXXXXXX         XXXXXXXXXXXX         XXXXXXXXXXXXXXXXXX                               ",
"                               XXXXXXXXXXXXXXXXXX        XXXXXXXXXXXXX         XXXXXXXXXXXXXXXXXX                               ",
"                               XXXXXXXXXXXXXXXXXX        XXXXXXXXXXXXXX        XXXXXXXXXXXXXXXXXX                               ",
"                               XXXXXXXXXXXXXXXXXX        XXXXXXXXXXXXXX        XXXXXXXXXXXXXXXXXX                               ",
"                               XXXXXXXXXXXXXXXXXX        XXXXXXXXXXXXXX        XXXXXXXXXXXXXXXXXX                               ",
"                               XXXXXXXXXXXXXXXXXX        XXXXXXXXXXXXXX        XXXXXXXXXXXXXXXXXX                               ",
"                               XXXXXXXXXXXXXXXXX         XXXXXXXXXXXXXX        XXXXXXXXXXXXXXXXX                                ",
"                                XXXXXXXXXXXXXXXX         XXXXXXXXXXXXXX         XXXXXXXXXXXXXXXX                                ",
"                                XXXXXXXXXXXXXXXX        XXXXXXXXXXXXXXXX        XXXXXXXXXXXXXXXX                                ",
"                                XXXXXXXXXXXXXXXX        XXXXXXXXXXXXXXXX        XXXXXXXXXXXXXXXX                                ",
"                                XXXXXXXXXXXXXXXX        XXXXXXXXXXXXXXXX        XXXXXXXXXXXXXXXX                                ",
"                                XXXXXXXXXXXXXXXX        XXXXXXXXXXXXXXXX        XXXXXXXXXXXXXXXX                                ",
"                                XXXXXXXXXXXXXXX         XXXXXXXXXXXXXXXX        XXXXXXXXXXXXXXX                                 ",
"                                 XXXXXXXXXXXXXX         XXXXXXXXXXXXXXXX         XXXXXXXXXXXXXX                                 ",
"                                 XXXXXXXXXXXXXX        XXXXXXXXXXXXXXXXX         XXXXXXXXXXXXXX                                 ",
"                                 XXXXXXXXXXXXXX        XXXXXXXXXXXXXXXXXX        XXXXXXXXXXXXXX                                 ",
"                                 XXXXXXXXXXXXXX        XXXXXXXXXXXXXXXXXX        XXXXXXXXXXXXXX                                 ",
"                                 XXXXXXXXXXXXXX        XXXXXXXXXXXXXXXXXX        XXXXXXXXXXXXXX                                 ",
"                                 XXXXXXXXXXXXX         XXXXXXXXXXXXXXXXXX        XXXXXXXXXXXXXX                                 ",
"                                  XXXXXXXXXXXX         XXXXXXXXXXXXXXXXXX         XXXXXXXXXXXX                                  ",
"                                  XXXXXXXXXXXX        XXXXXXXXXXXXXXXXXXX         XXXXXXXXXXXX                                  ",
"                                  XXXXXXXXXXXX        XXXXXXXXXXXXXXXXXXXX        XXXXXXXXXXXX                                  ",
"                                  XXXXXXXXXXXX        XXXXXXXXXXXXXXXXXXXX        XXXXXXXXXXXX                                  ",
"                                  XXXXXXXXXXXX        XXXXXXXXXXXXXXXXXXXX        XXXXXXXXXXXX                                  ",
"                                  XXXXXXXXXXXX        XXXXXXXXXXXXXXXXXXXX        XXXXXXXXXXXX                                  ",
"                                  XXXXXXXXXXX         XXXXXXXXXXXXXXXXXXXX        XXXXXXXXXXX                                   ",
"                                   XXXXXXXXXX         XXXXXXXXXXXXXXXXXXXX         XXXXXXXXXX                                   ",
"                                   XXXXXXXXXX        XXXXXXXXXXXXXXXXXXXXX         XXXXXXXXXX                                   ",
"                                   XXXXXXXXXX        XXXXXXXXXXXXXXXXXXXXXX        XXXXXXXXXX                                   ",
"                                   XXXXXXXXXX        XXXXXXXXXXXXXXXXXXXXXX        XXXXXXXXXX                                   ",
"                                   XXXXXXXXXX        XXXXXXXXXXXXXXXXXXXXXX        XXXXXXXXXX                                   ",
"                                   XXXXXXXXX         XXXXXXXXXXXXXXXXXXXXXX        XXXXXXXXX                                    ",
"                                    XXXXXXXX         XXXXXXXXXXXXXXXXXXXXXX         XXXXXXXX                                    ",
"                                    XXXXXXXX        XXXXXXXXXXXXXXXXXXXXXXX         XXXXXXXX                                    ",
"                                    XXXXXXXX        XXXXXXXXXXXXXXXXXXXXXXXX        XXXXXXXX                                    ",
"                                    XXXXXXXX        XXXXXXXXXXXXXXXXXXXXXXXX        XXXXXXXX                                    ",
"                                    XXXXXXXX        XXXXXXXXXXXXXXXXXXXXXXXX        XXXXXXXX                                    ",
"                                    XXXXXXX         XXXXXXXXXXXXXXXXXXXXXXXX        XXXXXXXX                                    ",
"                                     XXXXXX         XXXXXXXXXXXXXXXXXXXXXXXX         XXXXXX                                     ",
"                                     XXXXXX         XXXXXXXXXXXXXXXXXXXXXXXX         XXXXXX                                     ",
"                                     XXXXXX        XXXXXXXXXXXXXXXXXXXXXXXXX         XXXXXX                                     ",
"                                     XXXXXX        XXXXXXXXXXXXXXXXXXXXXXXXXX        XXXXXX                                     ",
"                                     XXXXXX        XXXXXXXXXXXXXXXXXXXXXXXXXX        XXXXXX                                     ",
"                                     XXXXXX        XXXXXXXXXXXXXXXXXXXXXXXXXX        XXXXXX                                     ",
"                                     XXXXX         XXXXXXXXXXXXXXXXXXXXXXXXXX        XXXXX                                      ",
"                                      XXXX         XXXXXXXXXXXXXXXXXXXXXXXXXX         XXXX                                      ",
"                                      XXXX        XXXXXXXXXXXXXXXXXXXXXXXXXXX         XXXX                                      ",
"                                      XXXX        XXXXXXXXXXXXXXXXXXXXXXXXXXXX        XXXX                                      ",
"                                      XXXX        XXXXXXXXXXXXXXXXXXXXXXXXXXXX        XXXX                                      ",
"                                      XXXX        XXXXXXXXXXXXXXXXXXXXXXXXXXXX        XXXX                                      ",
"                                      XXX         XXXXXXXXXXXXXXXXXXXXXXXXXXXX        XXX                                       ",
"                                       XX         XXXXXXXXXXXXXXXXXXXXXXXXXXXX         XX                                       ",
"                                       XX         XXXXXXXXXXXXXXXXXXXXXXXXXXXX         XX                                       ",
"                                       XX        XXXXXXXXXXXXXXXXXXXXXXXXXXXXX         XX                                       ",
"                                       XX        XXXXXXXXXXXXXXXXXXXXXXXXXXXXXX        XX                                       ",
"                                       XX        XXXXXXXXXXXXXXXXXXXXXXXXXXXXXX        XX                                       ",
"                                                 XXXXXXXXXXXXXXXXXXXXXXXXXXXXXX                                                 ",
"                                                 XXXXXXXXXXXXXXXXXXXXXXXXXXXXXX                                                 ",
"                                                 XXXXXXXXXXXXXXXXXXXXXXXXXXXXXX                                                 ",
"                                                XXXXXXXXXXXXXXXXXXXXXXXXXXXXXXX                                                 ",
"                                                XXXXXXXXXXXXXXXXXXXXXXXXXXXXXXXX                                                ",
"                                                XXXXXXXXXXXXXXXXXXXXXXXXXXXXXXXX                                                ",
"                                                XXXXXXXXXXXXXXXXXXXXXXXXXXXXXXXX                                                ",
"                                                XXXXXXXXXXXXXXXXXXXXXXXXXXXXXXXX                                                ",
"                                                XXXXXXXXXXXXXXXXXXXXXXXXXXXXXXXX                                                ",
"                                                XXXXXXXXXXXXXXXXXXXXXXXXXXXXXXXX                                                ",
"                                               XXXXXXXXXXXXXXXXXXXXXXXXXXXXXXXXX                                                ",
"                                               XXXXXXXXXXXXXXXXXXXXXXXXXXXXXXXXXX                                               ",
"                                               XXXXXXXXXXXXXXXXXXXXXXXXXXXXXXXXXX                                               ",
"                                               XXXXXXXXXXXXXXXXXXXXXXXXXXXXXXXXXX                                               ",
"                                               XXXXXXXXXXXXXXXXXXXXXXXXXXXXXXXXXX                                               ",
"                                               XXXXXXXXXXXXXXXXXXXXXXXXXXXXXXXXXX                                               ",
"                                               XXXXXXXXXXXXXXXXXXXXXXXXXXXXXXXXXX                                               ",
"                                              XXXXXXXXXXXXXXXXXXXXXXXXXXXXXXXXXXX                                               ",
"                                               XXXXXXXXXXXXXXXXXXXXXXXXXXXXXXXXXX                                               ",
"                                                   XXXXXXXXXXXXXXXXXXXXXXXXXX                                                   ",
"                                                        XXXXXXXXXXXXXXXX                                                        "
};
