/* XPM */
static char *_a9da8a3fef74aded05986b97c200cf1mR6yjMWb7b7QDfUN[] = {
/* columns rows colors chars-per-pixel */
"64 64 2 1 ",
"  c None",
". c #550000",
/* pixels */
"                          ...       ...                         ",
"                       ......       ......                      ",
"                    .........       .........                   ",
"                  ...........       ...........                 ",
"                 ...........        ............                ",
"               .............         .............              ",
"              ..............         ..............             ",
"             ...............         ...............            ",
"             ...............    .    ...............            ",
"             ...............    .    ...............            ",
"             ...............    .    ...............            ",
"             ..............     .     .............             ",
"              .............    ...    .............             ",
"              .............    ...    .............             ",
"              .............    ...    .............             ",
"              .............    ...    .............             ",
"              .............    ...    .............             ",
"              ............     ...    ............              ",
"               ...........    .....    ...........              ",
"               ...........    .....    ...........              ",
"               ...........    .....    ...........              ",
"               ...........    .....    ...........              ",
"               ...........    .....    ...........              ",
"               ...........    .....    ...........              ",
"                .........     .....     .........               ",
"                .........    .......    .........               ",
"                .........    .......    .........               ",
"                .........    .......    .........               ",
"                .........    .......    .........               ",
"                .........    .......    .........               ",
"                 .......     .......     .......                ",
"                 .......    .........    .......                ",
"                 .......    .........    .......                ",
"                 .......    .........    .......                ",
"                 .......    .........    .......                ",
"                 .......    .........    .......                ",
"                 ......     .........    ......                 ",
"                  .....    ..........     .....                 ",
"                  .....    ...........    .....                 ",
"                  .....    ...........    .....                 ",
"                  .....    ...........    .....                 ",
"                  .....    ...........    .....                 ",
"                  .....    ...........    .....                 ",
"                   ...     ...........     ...                  ",
"                   ...    .............    ...                  ",
"                   ...    .............    ...                  ",
"                   ...    .............    ...                  ",
"                   ...    .............    ...                  ",
"                   ...    .............    ...                  ",
"                    .     .............     .                   ",
"                    .    ..............     .                   ",
"                    .    ...............    .                   ",
"                    .    ...............    .                   ",
"                         ...............                        ",
"                         ...............                        ",
"                         ...............                        ",
"                         ...............                        ",
"                        .................                       ",
"                        .................                       ",
"                        .................                       ",
"                        .................                       ",
"                        .................                       ",
"                        .................                       ",
"                           ...........                          "
};
