/* XPM */
static char *_fdd804a6258405c85887f2c17b3d99dx3VcjZCvBM0xzsIU[] = {
/* columns rows colors chars-per-pixel */
"16 16 2 1 ",
"  c None",
". c #550000",
/* pixels */
"     ..  ..     ",
"   ....  ....   ",
"   ....  ....   ",
"   ....  ....   ",
"   ... .. ...   ",
"   ... .. ..    ",
"    .. .. ..    ",
"    .. .. ..    ",
"    .. .. ..    ",
"    .. .. ..    ",
"    .  ..  .    ",
"      ....      ",
"      ....      ",
"      ....      ",
"      ....      ",
"      ....      "
};
